<?xml version="1.0" encoding="iso-8859-1"?>
<!-- Uploaded to: SVG Repo, www.svgrepo.com, Generator: SVG Repo Mixer Tools -->
<svg version="1.1" id="Layer_1" xmlns="http://www.w3.org/2000/svg" xmlns:xlink="http://www.w3.org/1999/xlink" 
	 viewBox="0 0 503.467 503.467" xml:space="preserve">
<g transform="translate(1 1)">
	<path style="fill:#7EE1E6;" d="M139.8,464.067V498.2H3.267v-34.133c0-4.267,4.267-8.533,8.533-8.533s8.533,4.267,8.533,8.533
		c0-4.267,4.267-8.533,8.533-8.533s8.533,4.267,8.533,8.533c0-4.267,4.267-8.533,8.533-8.533s8.533,4.267,8.533,8.533
		c0-4.267,4.267-8.533,8.533-8.533s8.533,4.267,8.533,8.533c0-4.267,4.267-8.533,8.533-8.533c4.267,0,8.533,4.267,8.533,8.533
		c0-4.267,4.267-8.533,8.533-8.533s8.533,4.267,8.533,8.533c0-4.267,4.267-8.533,8.533-8.533c4.267,0,8.533,4.267,8.533,8.533
		c0-4.267,4.267-8.533,8.533-8.533C135.533,455.533,139.8,459.8,139.8,464.067z M498.2,464.067V498.2H361.667v-34.133
		c0-4.267,3.413-8.533,8.533-8.533s8.533,4.267,8.533,8.533c0-4.267,3.413-8.533,8.533-8.533s8.533,4.267,8.533,8.533
		c0-4.267,3.413-8.533,8.533-8.533s8.533,4.267,8.533,8.533c0-4.267,3.413-8.533,8.533-8.533s8.533,4.267,8.533,8.533
		c0-4.267,3.413-8.533,8.533-8.533c5.12,0,8.533,4.267,8.533,8.533c0-4.267,3.413-8.533,8.533-8.533s8.533,4.267,8.533,8.533
		c0-4.267,3.413-8.533,8.533-8.533c5.12,0,8.533,4.267,8.533,8.533c0-4.267,3.413-8.533,8.533-8.533S498.2,459.8,498.2,464.067z
		 M250.733,37.4H319V3.267h-68.267V37.4z"/>
	<g>
		<path style="fill:#E4F2DE;" d="M293.4,173.933v34.133h-85.333v-34.133c0-59.733,42.667-85.333,42.667-85.333
			S293.4,114.2,293.4,173.933"/>
		<path style="fill:#E4F2DE;" d="M191,361.667v119.467h-17.067V498.2H139.8v-34.133c0-4.267-4.267-8.533-8.533-8.533
			c-4.267,0-8.533,4.267-8.533,8.533c0-4.267-4.267-8.533-8.533-8.533c-4.267,0-8.533,4.267-8.533,8.533
			c0-4.267-4.267-8.533-8.533-8.533S88.6,459.8,88.6,464.067c0-4.267-4.267-8.533-8.533-8.533c-4.267,0-8.533,4.267-8.533,8.533
			c0-4.267-4.267-8.533-8.533-8.533s-8.533,4.267-8.533,8.533c0-4.267-4.267-8.533-8.533-8.533S37.4,459.8,37.4,464.067
			c0-4.267-4.267-8.533-8.533-8.533s-8.533,4.267-8.533,8.533c0-4.267-4.267-8.533-8.533-8.533s-8.533,4.267-8.533,8.533v-256h153.6
			h51.2H293.4h51.2h153.6v256c0-4.267-3.413-8.533-8.533-8.533s-8.533,4.267-8.533,8.533c0-4.267-3.413-8.533-8.533-8.533
			c-5.12,0-8.533,4.267-8.533,8.533c0-4.267-3.413-8.533-8.533-8.533S447,459.8,447,464.067c0-4.267-3.413-8.533-8.533-8.533
			c-5.12,0-8.533,4.267-8.533,8.533c0-4.267-3.413-8.533-8.533-8.533s-8.533,4.267-8.533,8.533c0-4.267-3.413-8.533-8.533-8.533
			s-8.533,4.267-8.533,8.533c0-4.267-3.413-8.533-8.533-8.533s-8.533,4.267-8.533,8.533c0-4.267-3.413-8.533-8.533-8.533
			s-8.533,4.267-8.533,8.533V498.2h-34.133v-17.067h-17.067V361.667h-59.733H191z"/>
		<rect x="173.933" y="481.133" style="fill:#E4F2DE;" width="153.6" height="17.067"/>
		<path style="fill:#E4F2DE;" d="M250.733,88.6c0,0-42.667,25.6-42.667,85.333v34.133h-51.2v-34.133
			C156.867,122.733,198.68,88.6,250.733,88.6z M344.6,173.933v34.133h-51.2v-34.133c0-59.733-42.667-85.333-42.667-85.333
			C302.787,88.6,344.6,122.733,344.6,173.933z"/>
	</g>
	<g>
		<polygon style="fill:#C49AE9;" points="310.467,412.867 310.467,481.133 191,481.133 191,361.667 310.467,361.667 		"/>
		<path style="fill:#C49AE9;" d="M412.867,412.867H447v-51.2h-34.133V412.867z M447,276.333v34.133h-34.133v-34.133
			c0-9.387,7.68-17.067,17.067-17.067S447,266.947,447,276.333z M173.933,276.333v34.133H139.8v-34.133
			c0-9.387,7.68-17.067,17.067-17.067S173.933,266.947,173.933,276.333z M361.667,276.333v34.133h-34.133v-34.133
			c0-9.387,7.68-17.067,17.067-17.067S361.667,266.947,361.667,276.333z M54.467,412.867H88.6v-51.2H54.467V412.867z M88.6,276.333
			v34.133H54.467v-34.133c0-9.387,7.68-17.067,17.067-17.067S88.6,266.947,88.6,276.333z M267.8,276.333v34.133h-34.133v-34.133
			c0-9.387,7.68-17.067,17.067-17.067C260.12,259.267,267.8,266.947,267.8,276.333z"/>
	</g>
</g>
<path style="fill:#51565F;" d="M499.2,503.467H362.667c-2.56,0-4.267-1.707-4.267-4.267v-34.133c0-6.827,5.973-12.8,12.8-12.8
	c3.413,0,5.973,0.853,8.533,3.413c4.267-4.267,12.8-4.267,17.067,0c4.267-4.267,12.8-4.267,17.067,0
	c4.267-4.267,12.8-4.267,17.067,0c4.267-4.267,12.8-4.267,17.067,0c4.267-4.267,12.8-4.267,17.067,0
	c4.267-4.267,12.8-4.267,17.067,0c3.413-2.56,8.533-4.267,12.8-2.56V213.333H8.533V453.12c4.267-1.707,9.387-0.853,12.8,2.56
	c4.267-4.267,12.8-4.267,17.067,0c4.267-4.267,12.8-4.267,17.067,0c4.267-4.267,12.8-4.267,17.067,0
	c4.267-4.267,12.8-4.267,17.067,0c4.267-4.267,12.8-4.267,17.067,0c4.267-4.267,12.8-4.267,17.067,0
	c2.56-1.707,5.12-3.413,8.533-3.413c6.827,0,12.8,5.973,12.8,12.8V499.2c0,2.56-1.707,4.267-4.267,4.267H4.267
	C1.707,503.467,0,501.76,0,499.2V192c0-2.56,1.707-4.267,4.267-4.267S8.533,189.44,8.533,192v12.8h486.4V192
	c0-2.56,1.707-4.267,4.267-4.267c2.56,0,4.267,1.707,4.267,4.267v307.2C503.467,501.76,501.76,503.467,499.2,503.467z
	 M366.933,494.933h128v-29.867c0-2.56-1.707-4.267-4.267-4.267s-4.267,1.707-4.267,4.267c0,2.56-1.707,4.267-4.267,4.267
	s-4.267-1.707-4.267-4.267c0-2.56-1.707-4.267-4.267-4.267s-4.267,1.707-4.267,4.267c0,2.56-1.707,4.267-4.267,4.267
	s-4.267-1.707-4.267-4.267c0-2.56-1.707-4.267-4.267-4.267s-4.267,1.707-4.267,4.267c0,2.56-1.707,4.267-4.267,4.267
	s-4.267-1.707-4.267-4.267c0-2.56-1.707-4.267-4.267-4.267c-2.56,0-4.267,1.707-4.267,4.267c0,2.56-1.707,4.267-4.267,4.267
	s-4.267-1.707-4.267-4.267c0-2.56-1.707-4.267-4.267-4.267s-4.267,1.707-4.267,4.267c0,2.56-1.707,4.267-4.267,4.267
	s-4.267-1.707-4.267-4.267c0-2.56-1.707-4.267-4.267-4.267s-4.267,1.707-4.267,4.267c0,2.56-1.707,4.267-4.267,4.267
	s-4.267-1.707-4.267-4.267c0-2.56-1.707-4.267-4.267-4.267S384,462.507,384,465.067c0,2.56-1.707,4.267-4.267,4.267
	c-2.56,0-4.267-1.707-4.267-4.267c0-2.56-1.707-4.267-4.267-4.267s-4.267,1.707-4.267,4.267V494.933z M8.533,494.933h128v-29.867
	c0-2.56-1.707-4.267-4.267-4.267c-2.56,0-4.267,1.707-4.267,4.267c0,2.56-1.707,4.267-4.267,4.267c-2.56,0-4.267-1.707-4.267-4.267
	c0-2.56-1.707-4.267-4.267-4.267c-2.56,0-4.267,1.707-4.267,4.267c0,2.56-1.707,4.267-4.267,4.267s-4.267-1.707-4.267-4.267
	c0-2.56-1.707-4.267-4.267-4.267s-4.267,1.707-4.267,4.267c0,2.56-1.707,4.267-4.267,4.267c-2.56,0-4.267-1.707-4.267-4.267
	c0-2.56-1.707-4.267-4.267-4.267c-2.56,0-4.267,1.707-4.267,4.267c0,2.56-1.707,4.267-4.267,4.267c-2.56,0-4.267-1.707-4.267-4.267
	c0-2.56-1.707-4.267-4.267-4.267c-2.56,0-4.267,1.707-4.267,4.267c0,2.56-1.707,4.267-4.267,4.267c-2.56,0-4.267-1.707-4.267-4.267
	c0-2.56-1.707-4.267-4.267-4.267c-2.56,0-4.267,1.707-4.267,4.267c0,2.56-1.707,4.267-4.267,4.267s-4.267-1.707-4.267-4.267
	c0-2.56-1.707-4.267-4.267-4.267s-4.267,1.707-4.267,4.267c0,2.56-1.707,4.267-4.267,4.267s-4.267-1.707-4.267-4.267
	c0-2.56-1.707-4.267-4.267-4.267s-4.267,1.707-4.267,4.267V494.933z M328.533,503.467c-2.56,0-4.267-1.707-4.267-4.267v-12.8H179.2
	v12.8c0,2.56-1.707,4.267-4.267,4.267c-2.56,0-4.267-1.707-4.267-4.267v-17.067c0-2.56,1.707-4.267,4.267-4.267h153.6
	c2.56,0,4.267,1.707,4.267,4.267V499.2C332.8,501.76,331.093,503.467,328.533,503.467z M311.467,452.267
	c-2.56,0-4.267-1.707-4.267-4.267v-81.067H256V409.6h4.267c2.56,0,4.267,1.707,4.267,4.267c0,2.56-1.707,4.267-4.267,4.267H256V448
	c0,2.56-1.707,4.267-4.267,4.267c-2.56,0-4.267-1.707-4.267-4.267v-29.867H243.2c-2.56,0-4.267-1.707-4.267-4.267
	c0-2.56,1.707-4.267,4.267-4.267h4.267v-42.667h-51.2V448c0,2.56-1.707,4.267-4.267,4.267s-4.267-1.707-4.267-4.267v-81.067h-12.8
	c-2.56,0-4.267-1.707-4.267-4.267s1.707-4.267,4.267-4.267h153.6c2.56,0,4.267,1.707,4.267,4.267s-1.707,4.267-4.267,4.267h-12.8
	V448C315.733,450.56,314.027,452.267,311.467,452.267z M448,418.133h-34.133c-2.56,0-4.267-1.707-4.267-4.267v-51.2
	c0-2.56,1.707-4.267,4.267-4.267H448c2.56,0,4.267,1.707,4.267,4.267v51.2C452.267,416.427,450.56,418.133,448,418.133z
	 M418.133,409.6h25.6v-42.667h-25.6V409.6z M89.6,418.133H55.467c-2.56,0-4.267-1.707-4.267-4.267v-51.2
	c0-2.56,1.707-4.267,4.267-4.267H89.6c2.56,0,4.267,1.707,4.267,4.267v51.2C93.867,416.427,92.16,418.133,89.6,418.133z
	 M59.733,409.6h25.6v-42.667h-25.6V409.6z M448,315.733h-34.133c-2.56,0-4.267-1.707-4.267-4.267v-34.133
	c0-11.947,9.387-21.333,21.333-21.333c11.947,0,21.333,9.387,21.333,21.333v34.133C452.267,314.027,450.56,315.733,448,315.733z
	 M418.133,307.2h25.6v-29.867c0-6.827-5.973-12.8-12.8-12.8s-12.8,5.973-12.8,12.8V307.2z M362.667,315.733h-34.133
	c-2.56,0-4.267-1.707-4.267-4.267v-34.133c0-11.947,9.387-21.333,21.333-21.333c11.947,0,21.333,9.387,21.333,21.333v34.133
	C366.933,314.027,365.227,315.733,362.667,315.733z M332.8,307.2h25.6v-29.867c0-6.827-5.973-12.8-12.8-12.8s-12.8,5.973-12.8,12.8
	V307.2z M268.8,315.733h-34.133c-2.56,0-4.267-1.707-4.267-4.267v-34.133c0-11.947,9.387-21.333,21.333-21.333
	c11.947,0,21.333,9.387,21.333,21.333v34.133C273.067,314.027,271.36,315.733,268.8,315.733z M238.933,307.2h25.6v-29.867
	c0-6.827-5.973-12.8-12.8-12.8c-6.827,0-12.8,5.973-12.8,12.8V307.2z M174.933,315.733H140.8c-2.56,0-4.267-1.707-4.267-4.267
	v-34.133c0-11.947,9.387-21.333,21.333-21.333c11.947,0,21.333,9.387,21.333,21.333v34.133
	C179.2,314.027,177.493,315.733,174.933,315.733z M145.067,307.2h25.6v-29.867c0-6.827-5.973-12.8-12.8-12.8
	c-6.827,0-12.8,5.973-12.8,12.8V307.2z M89.6,315.733H55.467c-2.56,0-4.267-1.707-4.267-4.267v-34.133
	C51.2,265.387,60.587,256,72.533,256s21.333,9.387,21.333,21.333v34.133C93.867,314.027,92.16,315.733,89.6,315.733z M59.733,307.2
	h25.6v-29.867c0-6.827-5.973-12.8-12.8-12.8c-6.827,0-12.8,5.973-12.8,12.8V307.2z M345.6,179.2c-2.56,0-4.267-1.707-4.267-4.267
	c0-42.667-31.573-75.093-75.947-80.213c13.653,11.947,33.28,38.4,33.28,80.213c0,2.56-1.707,4.267-4.267,4.267
	s-4.267-1.707-4.267-4.267c0-48.64-29.867-74.24-38.4-80.213c-8.533,5.973-38.4,30.72-38.4,80.213c0,2.56-1.707,4.267-4.267,4.267
	s-4.267-1.707-4.267-4.267c0-42.667,20.48-68.267,33.28-80.213c-45.227,5.12-75.947,37.547-75.947,80.213
	c0,2.56-1.707,4.267-4.267,4.267c-2.56,0-4.267-1.707-4.267-4.267c0-50.347,39.253-87.893,93.867-89.6V4.267
	c0-2.56,1.707-4.267,4.267-4.267H320c2.56,0,4.267,1.707,4.267,4.267V38.4c0,2.56-1.707,4.267-4.267,4.267h-34.133
	c-2.56,0-4.267-1.707-4.267-4.267s1.707-4.267,4.267-4.267h29.867v-25.6H256v76.8c54.613,1.707,93.867,39.253,93.867,89.6
	C349.867,177.493,348.16,179.2,345.6,179.2z"/>
</svg>