<?xml version="1.0" ?><!-- Uploaded to: SVG Repo, www.svgrepo.com, Generator: SVG Repo Mixer Tools -->
<svg width="800px" height="800px" viewBox="0 0 64 64" data-name="Layer 1" id="Layer_1" xmlns="http://www.w3.org/2000/svg"><defs><style>.cls-1{fill:#ba9bc9;}.cls-2{fill:#838bc5;}.cls-3{fill:#65c8d0;}.cls-4{fill:#8f6c56;}.cls-5{fill:#fcdd7c;}</style></defs><rect class="cls-1" height="14" width="34" x="15" y="48"/><polyline class="cls-2" points="39 62 39 52 32 42 25 52 25 62"/><polyline class="cls-3" points="30 62 30 58 34 58 34 62"/><rect class="cls-4" height="2" width="40" x="12" y="61"/><rect class="cls-5" height="2" width="2" x="28" y="53"/><rect class="cls-5" height="2" width="2" x="31" y="49"/><rect class="cls-5" height="2" width="2" x="34" y="53"/><rect class="cls-5" height="2" width="2" x="44" y="51"/><rect class="cls-5" height="2" width="2" x="44" y="55"/><rect class="cls-5" height="2" width="2" x="18" y="51"/><rect class="cls-5" height="2" width="2" x="18" y="55"/><polyline class="cls-2" points="60 21 60 11 53 1 46 11 46 21"/><polyline class="cls-3" points="51 21 51 17 55 17 55 21"/><rect class="cls-4" height="2" width="20" x="43" y="20"/><rect class="cls-5" height="2" width="2" x="49" y="12"/><rect class="cls-5" height="2" width="2" x="52" y="8"/><rect class="cls-5" height="2" width="2" x="55" y="12"/><path class="cls-5" d="M32.89,38.45l-1.78-.9L32.38,35H30a1,1,0,0,1-.89-1.45l2-4,1.78.9L31.62,33H34a1,1,0,0,1,.89,1.45Z"/><polyline class="cls-2" points="18 21 18 11 11 1 4 11 4 21"/><polyline class="cls-3" points="9 21 9 17 13 17 13 21"/><rect class="cls-4" height="2" width="20" x="1" y="20"/><rect class="cls-5" height="2" width="2" x="7" y="12"/><rect class="cls-5" height="2" width="2" x="10" y="8"/><rect class="cls-5" height="2" width="2" x="13" y="12"/><path class="cls-2" d="M43,45H41V39a1,1,0,0,1,1-1H52V25h2V39a1,1,0,0,1-1,1H43Z"/><path class="cls-2" d="M23,45H21V40H11a1,1,0,0,1-1-1V25h2V38H22a1,1,0,0,1,1,1Z"/></svg>