<?xml version="1.0" encoding="utf-8"?>
<!-- Uploaded to: SVG Repo, www.svgrepo.com, Generator: SVG Repo Mixer Tools -->
<svg width="800px" height="800px" viewBox="0 0 1024 1024" class="icon"  version="1.1" xmlns="http://www.w3.org/2000/svg"><path d="M835.7 313.3c-1.4-5.1-6.9-9.3-12.2-9.3h-56.8c-5.3 0-10.8 4.2-12.2 9.3l-12.7 46c-1.4 5.1 1.8 9.3 7.1 9.3h92.5c5.3 0 8.5-4.2 7.1-9.3l-12.8-46z" fill="#FF8189" /><path d="M192.7 293.5h48.6V342h-48.6z" fill="#A4A9AD" /><path d="M192.7 293.5h48.6v21.2h-48.6z" fill="" /><path d="M310.2 293.5h48.6V342h-48.6z" fill="#A4A9AD" /><path d="M310.2 293.5h48.6v21.2h-48.6z" fill="" /><path d="M427.6 293.5h48.6V342h-48.6z" fill="#A4A9AD" /><path d="M427.6 293.5h48.6v21.2h-48.6z" fill="" /><path d="M95.2 695.1V390.2c0-26.5 21.7-48.1 48.1-48.1h737.1c26.5 0 48.1 21.7 48.1 48.1V695H95.2z" fill="#FF5959" /><path d="M95.2 530.4h833.4v37.8H95.2z" fill="#D1D3D3" /><path d="M958.9 709.6c0 9.9-8.1 17.9-17.9 17.9h-40.3c-9.9 0-17.9-8.1-17.9-17.9v-29.1c0-9.9 8.1-17.9 17.9-17.9H941c9.9 0 17.9 8.1 17.9 17.9v29.1zM133.3 709.6c0 9.9-8.1 17.9-17.9 17.9H82.7c-9.9 0-17.9-8.1-17.9-17.9v-29.1c0-9.9 8.1-17.9 17.9-17.9h32.6c9.9 0 17.9 8.1 17.9 17.9l0.1 29.1z" fill="#A4A9AD" /><path d="M410.7 695.1c0-64.7-52.5-117.2-117.2-117.2s-117.2 52.5-117.2 117.2h234.4z" fill="" /><path d="M293.4 695.1m-97 0a97 97 0 1 0 194 0 97 97 0 1 0-194 0Z" fill="#333E48" /><path d="M293.4 695.1m-49.2 0a49.2 49.2 0 1 0 98.4 0 49.2 49.2 0 1 0-98.4 0Z" fill="#A4A9AD" /><path d="M847.5 695.1c0-64.7-52.5-117.2-117.2-117.2s-117.2 52.5-117.2 117.2h234.4z" fill="" /><path d="M730.3 695.1m-97 0a97 97 0 1 0 194 0 97 97 0 1 0-194 0Z" fill="#333E48" /><path d="M730.3 695.1m-49.2 0a49.2 49.2 0 1 0 98.4 0 49.2 49.2 0 1 0-98.4 0Z" fill="#A4A9AD" /><path d="M730.3 251.2c0-10.6-8.7-19.3-19.3-19.3H159.5c-10.6 0-19.3 8.7-19.3 19.3v23.1c0 10.6 8.7 19.3 19.3 19.3h551.6c10.6 0 19.3-8.7 19.3-19.3l-0.1-23.1z" fill="#D1D3D3" /><path d="M739.9 463.9c0 8.5 6.9 15.4 15.4 15.4h112.1c8.5 0 15.4-6.9 15.4-15.4v-66.8c0-8.5-6.9-15.4-15.4-15.4H755.3c-8.5 0-15.4 6.9-15.4 15.4v66.8z" fill="#333E48" /><path d="M867.4 381.8H755.3c-8.5 0-15.4 6.9-15.4 15.4v19.9c0-8.5 6.9-15.4 15.4-15.4h112.1c8.5 0 15.4 6.9 15.4 15.4v-19.9c0.1-8.5-6.9-15.4-15.4-15.4z" fill="" /><path d="M599.6 463.9c0 8.5 6.9 15.4 15.4 15.4h65.9c8.5 0 15.4-6.9 15.4-15.4v-66.8c0-8.5-6.9-15.4-15.4-15.4H615c-8.5 0-15.4 6.9-15.4 15.4v66.8z" fill="#333E48" /><path d="M680.9 381.8H615c-8.5 0-15.4 6.9-15.4 15.4v19.9c0-8.5 6.9-15.4 15.4-15.4h65.9c8.5 0 15.4 6.9 15.4 15.4v-19.9c0-8.5-6.9-15.4-15.4-15.4z" fill="" /><path d="M439.6 507.3h144.6v187.8H439.6z" fill="#A4A9AD" /><path d="M483.2 556.7m-13.5 0a13.5 13.5 0 1 0 27 0 13.5 13.5 0 1 0-27 0Z" fill="#D1D3D3" /><path d="M540.5 556.7m-13.5 0a13.5 13.5 0 1 0 27 0 13.5 13.5 0 1 0-27 0Z" fill="#D1D3D3" /><path d="M540.5 618.5h-57.3c-8 0-14.4-6.5-14.4-14.4s6.5-14.4 14.4-14.4h57.3c8 0 14.4 6.5 14.4 14.4s-6.4 14.4-14.4 14.4zM540.5 662.6h-57.3c-8 0-14.4-6.5-14.4-14.4s6.5-14.4 14.4-14.4h57.3c8 0 14.4 6.5 14.4 14.4s-6.4 14.4-14.4 14.4z" fill="#D1D3D3" /><path d="M928.6 662.6h-41.2c-5.3 0-9.6-4.3-9.6-9.6v-24.4c0-5.3 4.3-9.6 9.6-9.6h41.2v43.6zM95.2 662.6h41.2c5.3 0 9.6-4.3 9.6-9.6v-24.4c0-5.3-4.3-9.6-9.6-9.6H95.2v43.6zM185.4 416.1h317V445h-317z" fill="#FFB819" /><path d="M528.5 405.5c0-5.3-4.3-9.6-9.6-9.6h-32.8c-5.3 0-9.6 4.3-9.6 9.6v50.1c0 5.3 4.3 9.6 9.6 9.6h32.8c5.3 0 9.6-4.3 9.6-9.6v-50.1zM211.4 405.5c0-5.3-4.3-9.6-9.6-9.6H169c-5.3 0-9.6 4.3-9.6 9.6v50.1c0 5.3 4.3 9.6 9.6 9.6h32.8c5.3 0 9.6-4.3 9.6-9.6v-50.1z" fill="#D1D3D3" /></svg>