<?xml version="1.0" encoding="iso-8859-1"?>
<!-- Uploaded to: SVG Repo, www.svgrepo.com, Generator: SVG Repo Mixer Tools -->
<svg height="800px" width="800px" version="1.1" id="Layer_1" xmlns="http://www.w3.org/2000/svg" xmlns:xlink="http://www.w3.org/1999/xlink" 
	 viewBox="0 0 512 512" xml:space="preserve">
<g>
	<path style="fill:#C7CBC7;" d="M459.034,167.724h30.897V0H348.69v167.724h30.014c-0.883-1.766-1.766-3.531-2.648-5.297
		c-5.297-9.71,2.648-21.186,13.241-21.186h58.262c10.593,0,17.655,11.476,13.241,21.186
		C460.8,164.193,459.917,165.959,459.034,167.724"/>
	<path style="fill:#C7CBC7;" d="M459.034,344.276c0.883,1.766,1.766,3.531,2.648,5.297c5.297,9.71-2.648,21.186-13.241,21.186
		h-58.262c-10.593,0-17.655-11.476-13.241-21.186c0.883-1.766,1.766-3.531,2.648-5.297H348.69V512h141.241V344.276H459.034z"/>
</g>
<path style="fill:#949493;" d="M378.703,167.724c8.828,19.421,13.241,40.607,13.241,61.793v4.414l26.483-13.241l26.483,13.241
	v-4.414c0-21.186,4.414-42.372,13.241-61.793h31.779v176.552h-30.897c-8.828-19.421-13.241-40.607-13.241-61.793v-4.414
	L419.31,291.31l-26.483-13.241v4.414c0,21.186-4.414,42.372-13.241,61.793H348.69V167.724H378.703z"/>
<path style="fill:#B72F29;" d="M419.31,291.31l35.31-17.655v-35.31l-35.31-17.655L384,238.345v35.31L419.31,291.31z"/>
<path style="fill:#949493;" d="M384,97.103h70.621V35.31H384V97.103z"/>
<g>
	<path style="fill:#E15649;" d="M419.31,220.69l-27.365,13.241v-5.297c0-22.952-5.297-45.903-15.89-67.09
		c-5.297-9.71,2.648-21.186,13.241-21.186h59.145c10.593,0,17.655,11.476,13.241,21.186c-10.593,21.186-15.89,44.138-15.89,67.09
		v4.414L419.31,220.69z"/>
	<path style="fill:#E15649;" d="M419.31,291.31l26.483-13.241v4.414c0,22.952,5.297,45.903,15.89,67.09
		c5.297,9.71-2.648,21.186-13.241,21.186h-58.262c-10.593,0-17.655-11.476-13.241-21.186c10.593-21.186,15.89-44.138,15.89-67.09
		v-4.414L419.31,291.31z"/>
</g>
<path style="fill:#949493;" d="M66.207,222.455v-63.559h141.241v63.559c-14.124,4.414-29.131,7.062-44.138,7.062h-4.414L172.138,256
	l-13.241,26.483h4.414c15.007,0,30.014,2.648,44.138,7.062v45.903H66.207v-45.903c14.124-4.414,29.131-7.062,44.138-7.062h4.414
	L101.517,256l13.241-26.483h-4.414C95.338,229.517,80.331,226.869,66.207,222.455"/>
<g>
	<path style="fill:#C7CBC7;" d="M66.207,158.897h141.241V0H66.207V158.897z"/>
	<path style="fill:#C7CBC7;" d="M66.207,512h141.241V335.448H66.207V512z"/>
</g>
<path style="fill:#949493;" d="M101.517,97.103h70.621V35.31h-70.621V97.103z"/>
<path style="fill:#BC9119;" d="M101.517,256l17.655,35.31h35.31L172.138,256l-17.655-35.31h-35.31L101.517,256z"/>
<g>
	<path style="fill:#ECBA16;" d="M172.138,256l-13.241-26.483h4.414c22.952,0,45.903-5.297,67.09-15.89
		c9.71-5.297,21.186,2.648,21.186,13.241v58.262c0,10.593-11.476,17.655-21.186,13.241c-21.186-10.593-44.138-15.89-67.09-15.89
		h-4.414L172.138,256z"/>
	<path style="fill:#ECBA16;" d="M101.517,256l13.241,26.483h-4.414c-22.952,0-45.903,5.297-67.09,15.89
		c-9.71,4.414-21.186-2.648-21.186-13.241v-58.262c0-10.593,11.476-17.655,21.186-13.241c21.186,10.593,44.138,15.89,67.09,15.89
		h4.414L101.517,256z"/>
</g>
</svg>