<?xml version="1.0" encoding="iso-8859-1"?>
<!-- Uploaded to: SVG Repo, www.svgrepo.com, Generator: SVG Repo Mixer Tools -->
<svg version="1.1" id="Layer_1" xmlns="http://www.w3.org/2000/svg" xmlns:xlink="http://www.w3.org/1999/xlink" 
	 viewBox="0 0 511.999 511.999" xml:space="preserve">
<g>
	<path style="fill:#CCC3A8;" d="M154.808,297.737c0.012-0.221,0.033-0.437,0.033-0.66v-20.806c0-7.132-5.782-12.914-12.914-12.914
		H80.949c-7.133,0-12.914,5.782-12.914,12.914v20.806c0,0.223,0.022,0.439,0.032,0.66L154.808,297.737L154.808,297.737z"/>
	<path style="fill:#CCC3A8;" d="M365.764,8.071h-11.478H352.3h-49.669h-9.325H241.65c-7.132,0-12.914,5.782-12.914,12.914v20.804
		c0,0.225,0.023,0.441,0.033,0.662h51.656h35.085h23.909h27.746h58.993c0.013-0.221,0.033-0.437,0.033-0.662V20.985
		c0-7.132-5.781-12.914-12.914-12.914h-18.46"/>
</g>
<g>
	<path style="fill:#C9B585;" d="M97.248,297.078v-3.616v-17.19c0-7.132,5.781-12.914,12.914-12.914H88.639
		c-7.133,0-12.914,5.782-12.914,12.914v17.189v3.616v17.19c0,0.223,0.022,0.439,0.032,0.66h21.523
		c-0.012-0.221-0.032-0.437-0.032-0.66V297.078z"/>
	<path style="fill:#C9B585;" d="M257.948,41.788v-9.2V20.985c0-7.132,5.782-12.914,12.914-12.914h-21.523
		c-7.132,0-12.912,5.782-12.912,12.914v11.604v9.2v11.604c0,0.225,0.023,0.441,0.033,0.662h21.522
		c-0.011-0.221-0.033-0.437-0.033-0.662V41.788L257.948,41.788z"/>
</g>
<path style="fill:#36A1CB;" d="M469.701,107.016V82.114c0-21.907-17.758-39.663-39.664-39.663H225.111
	c-21.905,0-39.663,17.756-39.663,39.663v391.528h284.253V133.921"/>
<path style="fill:#2B80AF;" d="M214.66,99.993V82.114c0-21.907,17.758-39.663,39.664-39.663h-21.524
	c-21.905,0-39.663,17.756-39.663,39.663v17.879v373.65v17.879h21.523v-17.879L214.66,99.993L214.66,99.993z"/>
<path style="fill:#4BAF78;" d="M185.448,473.64V297.737H50.032c-7.133,0-12.914,5.782-12.914,12.914v162.99H185.448z"/>
<path style="fill:#299956;" d="M66.331,337.607v-26.956c0-7.132,5.781-12.914,12.914-12.914h-7.466H57.722
	c-7.133,0-12.914,5.782-12.914,12.914v26.956V473.64v26.956h14.057h7.466V473.64V337.607H66.331z"/>
<path style="fill:#CCC3A8;" d="M419.657,503.929h70.365c7.449,0,13.487-6.038,13.487-13.487v-3.314
	c0-7.449-6.038-13.487-13.487-13.487h-81.067H103.043H21.976c-7.449,0-13.487,6.038-13.487,13.487v3.314
	c0,7.449,6.038,13.487,13.487,13.487h81.067h289.351"/>
<path style="fill:#C9B585;" d="M37.702,490.442v-3.314c0-7.449,6.038-13.487,13.487-13.487H29.666
	c-7.449,0-13.487,6.038-13.487,13.487v3.314c0,7.449,6.038,13.487,13.487,13.487h21.523
	C43.74,503.929,37.702,497.891,37.702,490.442z"/>
<rect x="333.48" y="42.45" style="fill:#8BD8F7;" width="61.339" height="431.194"/>
<rect x="37.118" y="340.875" style="fill:#FFB92E;" width="148.334" height="34.377"/>
<polygon style="fill:#EF9A1D;" points="64.468,340.875 46.672,340.875 44.808,340.875 44.808,375.252 46.672,375.252 
	64.468,375.252 66.331,375.252 66.331,340.875 "/>
<path style="fill:#231F20;" d="M490.021,465.569h-12.25V133.921c0-4.458-3.613-8.071-8.071-8.071c-4.458,0-8.071,3.613-8.071,8.071
	v331.648h-58.738V437.88v-35.76v-35.76v-35.762v-35.76c0-0.174-0.015-0.343-0.026-0.515c0.011-0.171,0.026-0.341,0.026-0.515
	v-35.762v-35.76v-35.76v-35.76c0-0.174-0.015-0.344-0.026-0.515c0.011-0.171,0.026-0.341,0.026-0.515v-35.76v-35.76V62.903V50.527
	h23.269h3.878c17.42,0,31.593,14.173,31.593,31.592v24.903c0,4.458,3.613,8.071,8.071,8.071c4.457,0,8.071-3.613,8.071-8.071V82.114
	c0-24.896-19.16-45.389-43.508-47.537V20.985C434.265,9.414,424.851,0,413.281,0H394.82c-4.458,0-8.071,3.613-8.071,8.071
	s3.613,8.071,8.071,8.071h18.46c2.67,0,4.843,2.173,4.843,4.843v13.395h-15.232v-1.614c0-4.458-3.613-8.071-8.071-8.071
	s-8.071,3.613-8.071,8.071v1.614h-45.197v-1.614c0-4.458-3.613-8.071-8.071-8.071c-4.458,0-8.071,3.613-8.071,8.071v1.614h-88.602
	V20.985c0-2.67,2.172-4.843,4.843-4.843h124.114c4.458,0,8.071-3.613,8.071-8.071S370.223,0,365.764,0H241.65
	c-11.572,0-20.985,9.414-20.985,20.985v13.609c-24.243,2.25-43.288,22.699-43.288,47.52v207.552h-14.463v-13.395
	c0-11.571-9.414-20.985-20.985-20.985h-60.98c-11.572,0-20.985,9.414-20.985,20.985v13.395h-9.932
	c-11.572,0-20.985,9.414-20.985,20.985v30.224v34.377v90.317h-7.071c-11.887,0-21.558,9.671-21.558,21.558v3.314
	c0,11.887,9.671,21.558,21.558,21.558h370.418c4.458,0,8.071-3.613,8.071-8.071s-3.613-8.071-8.071-8.071H21.976
	c-2.986,0-5.416-2.43-5.416-5.416v-3.314c0-2.986,2.43-5.416,5.416-5.416h15.142h148.286c0.014,0,0.028,0.002,0.043,0.002H333.48
	h61.339h74.881c0.014,0,0.028-0.002,0.043-0.002h20.277c2.986,0,5.416,2.43,5.416,5.416v3.314c0,2.986-2.43,5.416-5.416,5.416
	h-70.365c-4.458,0-8.071,3.613-8.071,8.071s3.613,8.071,8.071,8.071h70.365c11.887,0,21.558-9.671,21.558-21.558v-3.314
	C511.58,475.24,501.908,465.569,490.021,465.569z M45.189,348.946h132.188v18.235H45.189V348.946z M386.749,141.661h-45.197v-19.618
	h45.197V141.661z M386.749,178.452h-45.197v-19.618h45.197V178.452z M386.749,214.213h-45.197v-19.618h45.197V214.213z
	 M386.749,249.973h-45.197v-19.618h45.197V249.973z M386.749,285.735h-45.197v-19.62h45.197V285.735z M386.749,322.526h-45.197
	v-19.618h45.197V322.526z M386.749,358.288h-45.197v-19.62h45.197V358.288z M386.749,394.049h-45.197v-19.618h45.197V394.049z
	 M341.551,410.191h45.197v19.618h-45.197V410.191z M386.749,105.9h-45.197V86.282h45.197V105.9z M341.551,465.569v-19.618h45.197
	v19.618H341.551z M386.749,50.521v12.375v7.242h-45.197v-7.242V50.521C341.551,50.521,386.749,50.521,386.749,50.521z
	 M193.519,82.114c0-17.42,14.172-31.592,31.592-31.592h3.658h96.64v12.375v15.313v35.76v35.76c0,0.174,0.015,0.344,0.026,0.515
	c-0.011,0.171-0.026,0.341-0.026,0.515v35.76v35.76v35.76v35.762c0,0.174,0.015,0.343,0.026,0.515
	c-0.011,0.171-0.026,0.341-0.026,0.515v35.76v35.762v35.76v35.76v27.689H193.519v-90.317v-34.372v-43.138V82.114z M76.107,276.272
	c0-2.67,2.172-4.843,4.843-4.843h60.98c2.67,0,4.843,2.173,4.843,4.843v13.395H76.107V276.272z M50.032,305.808h18.036h86.741
	h22.569v26.996H45.189v-22.153C45.189,307.98,47.362,305.808,50.032,305.808z M45.189,383.323h132.188v82.246H45.189V383.323z"/>
</svg>